# xmcd
#
# Track frame offsets:
#	150
#	16263
#	32104
#	54103
#	70774
#	88839
#	107666
#	128108
#	146894
#	162748
#	182882
#	199725
#	214518
#	232112
#	251446
#	266437
#	284079
#	299716
#	316211
#	332053
#
# Disc length: 4745 seconds
#
# Revision: 0
# Processed by: cddbd v1.5.2PL0 Copyright (c) Steve Scherf et al.
# Submitted via: EasyCDDAExtractor 16.0.9.1
#
DISCID=38128714
DTITLE=Various Artist - MTV European Top 20
DYEAR=1999
DGENRE=Dance, Pop
TTITLE0=Britney Spears - Born To Make You Happy
TTITLE1=Eiffel 65 - Move Your Body
TTITLE2=R. Kelly - If I Could Turn Back The Hands Of Time
TTITLE3=Moby - Why Does My Heart Feel So Bad
TTITLE4=Celine Dion - That's The Way It Is
TTITLE5=Scooter - Fuck The Millenium
TTITLE6=Puff Daddy feat. R. Kelly - Satisfy You
TTITLE7=Bloodhound Gang - The Bad Touch
TTITLE8=Vengaboys - Kiss
TTITLE9=Prezioso and Marvin - Tell Me Why
TTITLE10=Jennifer Lopez - Waiting For Tonight
TTITLE11=Five - Keep On Movin'
TTITLE12=A'Teens - A'Teens Medley
TTITLE13=Robbie Williams - She's The One
TTITLE14=Christina Aguilera - What A Girl Wants
TTITLE15=Garbage - The World Is Not Enough
TTITLE16=Enrique Iglesias - The Rhythm Divine
TTITLE17=Rollergirl - Luv U More
TTITLE18=Boyzone - Every Day I Love You
TTITLE19=Metallica - Nothing Else Matters
EXTD=
EXTT0=
EXTT1=
EXTT2=
EXTT3=
EXTT4=
EXTT5=
EXTT6=
EXTT7=
EXTT8=
EXTT9=
EXTT10=
EXTT11=
EXTT12=
EXTT13=
EXTT14=
EXTT15=
EXTT16=
EXTT17=
EXTT18=
EXTT19=
PLAYORDER=
